<?xml version="1.0" encoding="utf-8"?><!-- Uploaded to: SVG Repo, www.svgrepo.com, Generator: SVG Repo Mixer Tools -->
<svg fill="#000000" width="800px" height="800px" viewBox="0 0 24 24" id="mobile-payment-done-2" data-name="Flat Color" xmlns="http://www.w3.org/2000/svg" class="icon flat-color"><path id="secondary" d="M10,12v5a1,1,0,0,1-1,1H4a2,2,0,0,1-2-2V12Zm0-2V7A1,1,0,0,0,9,6H4A2,2,0,0,0,2,8v2Z" style="fill: rgb(44, 169, 188);"></path><rect id="primary" x="8" y="2" width="14" height="20" rx="2" style="fill: rgb(0, 0, 0);"></rect><path id="secondary-2" data-name="secondary" d="M18,2l-.31,1.24a1,1,0,0,1-1,.76H13.28a1,1,0,0,1-1-.76L12,2m2.12,12.25a1,1,0,0,0,.76-.39l1.91-2.5a1,1,0,0,0-.18-1.4,1,1,0,0,0-1.41.18L14,11.67l-.29-.33a1,1,0,1,0-1.5,1.32l1.09,1.25a1,1,0,0,0,.75.34Z" style="fill: rgb(44, 169, 188);"></path></svg>